<svg width="134" height="134" viewBox="0 0 134 134" fill="none" xmlns="http://www.w3.org/2000/svg">
<path d="M54.4374 17.3311V49.2339C54.4374 52.5657 53.1139 55.761 50.758 58.117L27.9166 80.9583M54.4374 17.3311C53.0352 17.4615 51.6393 17.6135 50.2499 17.7867M54.4374 17.3311C58.5733 16.9466 62.7637 16.75 66.9999 16.75C71.2362 16.75 75.4266 16.9466 79.5624 17.3311M79.5624 17.3311V49.2339C79.5624 52.5657 80.886 55.761 83.2419 58.117L110.55 85.425M79.5624 17.3311C80.9647 17.4615 82.3606 17.6135 83.7499 17.7867M110.55 85.425L101.784 87.6166C90.1465 90.5259 77.7288 89.1144 66.9999 83.75C56.2711 78.3856 43.8534 76.9741 32.2163 79.8834L27.9166 80.9583M110.55 85.425L118.379 93.254C125.257 100.132 122.011 111.78 112.423 113.417C97.6586 115.937 82.4826 117.25 66.9999 117.25C51.5173 117.25 36.3413 115.937 21.5772 113.417C11.9889 111.78 8.74289 100.132 15.621 93.254L27.9166 80.9583" stroke="#3772FF" stroke-width="2" stroke-linecap="round" stroke-linejoin="round"/>
</svg>