<svg width="444" height="444" viewBox="0 0 444 444" fill="none" xmlns="http://www.w3.org/2000/svg">
<path d="M374.625 117.938C374.625 160.084 306.292 194.25 222 194.25C137.708 194.25 69.375 160.084 69.375 117.938M374.625 117.938C374.625 75.7913 306.292 41.625 222 41.625C137.708 41.625 69.375 75.7913 69.375 117.938M374.625 117.938V326.062C374.625 368.209 306.292 402.375 222 402.375C137.708 402.375 69.375 368.209 69.375 326.062V117.938M374.625 117.938V187.312M69.375 117.938V187.312M374.625 187.312V256.688C374.625 298.834 306.292 333 222 333C137.708 333 69.375 298.834 69.375 256.688V187.312M374.625 187.312C374.625 229.459 306.292 263.625 222 263.625C137.708 263.625 69.375 229.459 69.375 187.312" stroke="#3772FF" stroke-width="2" stroke-linecap="round" stroke-linejoin="round"/>
</svg>